<mxfile host="app.diagrams.net" agent="Mozilla/5.0 (Windows NT 10.0; Win64; x64) AppleWebKit/537.36 (KHTML, like Gecko) Chrome/131.0.0.0 Safari/537.36 OPR/116.0.0.0" version="26.0.14">
  <diagram name="Página-1" id="mMVlLr_qjnrjmnCqXonY">
    <mxGraphModel grid="1" page="1" gridSize="10" guides="1" tooltips="1" connect="1" arrows="1" fold="1" pageScale="1" pageWidth="827" pageHeight="1169" math="0" shadow="0">
      <root>
        <mxCell id="0" />
        <mxCell id="1" parent="0" />
        <mxCell id="pE7B3yx1g88c6PC-OE0C-7" style="edgeStyle=orthogonalEdgeStyle;rounded=0;orthogonalLoop=1;jettySize=auto;html=1;" edge="1" parent="1" source="pE7B3yx1g88c6PC-OE0C-1" target="pE7B3yx1g88c6PC-OE0C-3">
          <mxGeometry relative="1" as="geometry" />
        </mxCell>
        <mxCell id="pE7B3yx1g88c6PC-OE0C-1" value="INICIO" style="rounded=1;whiteSpace=wrap;html=1;arcSize=50;" vertex="1" parent="1">
          <mxGeometry x="354" y="20" width="120" height="60" as="geometry" />
        </mxCell>
        <mxCell id="pE7B3yx1g88c6PC-OE0C-2" value="FINAL" style="rounded=1;whiteSpace=wrap;html=1;arcSize=50;" vertex="1" parent="1">
          <mxGeometry x="355" y="630" width="120" height="60" as="geometry" />
        </mxCell>
        <mxCell id="pE7B3yx1g88c6PC-OE0C-8" style="edgeStyle=orthogonalEdgeStyle;rounded=0;orthogonalLoop=1;jettySize=auto;html=1;entryX=0.5;entryY=0;entryDx=0;entryDy=0;" edge="1" parent="1" source="pE7B3yx1g88c6PC-OE0C-3" target="pE7B3yx1g88c6PC-OE0C-5">
          <mxGeometry relative="1" as="geometry" />
        </mxCell>
        <mxCell id="pE7B3yx1g88c6PC-OE0C-3" value="Receba o primero número&lt;div&gt;(n1)&lt;/div&gt;" style="shape=parallelogram;perimeter=parallelogramPerimeter;whiteSpace=wrap;html=1;fixedSize=1;" vertex="1" parent="1">
          <mxGeometry x="329" y="130" width="170" height="60" as="geometry" />
        </mxCell>
        <mxCell id="pE7B3yx1g88c6PC-OE0C-9" style="edgeStyle=orthogonalEdgeStyle;rounded=0;orthogonalLoop=1;jettySize=auto;html=1;" edge="1" parent="1" source="pE7B3yx1g88c6PC-OE0C-5" target="pE7B3yx1g88c6PC-OE0C-6">
          <mxGeometry relative="1" as="geometry" />
        </mxCell>
        <mxCell id="pE7B3yx1g88c6PC-OE0C-5" value="Receba o segundo número&lt;div&gt;(n2)&lt;/div&gt;" style="shape=parallelogram;perimeter=parallelogramPerimeter;whiteSpace=wrap;html=1;fixedSize=1;" vertex="1" parent="1">
          <mxGeometry x="329" y="230" width="170" height="60" as="geometry" />
        </mxCell>
        <mxCell id="pE7B3yx1g88c6PC-OE0C-11" style="edgeStyle=orthogonalEdgeStyle;rounded=0;orthogonalLoop=1;jettySize=auto;html=1;entryX=0.5;entryY=0;entryDx=0;entryDy=0;" edge="1" parent="1" source="pE7B3yx1g88c6PC-OE0C-6" target="pE7B3yx1g88c6PC-OE0C-10">
          <mxGeometry relative="1" as="geometry" />
        </mxCell>
        <mxCell id="pE7B3yx1g88c6PC-OE0C-6" value="Receba o terça número&lt;div&gt;(n3)&lt;/div&gt;" style="shape=parallelogram;perimeter=parallelogramPerimeter;whiteSpace=wrap;html=1;fixedSize=1;" vertex="1" parent="1">
          <mxGeometry x="329" y="330" width="170" height="60" as="geometry" />
        </mxCell>
        <mxCell id="pE7B3yx1g88c6PC-OE0C-10" value="Calcule a média&lt;div&gt;((n1 + n2 +n3)/3 = media)&lt;/div&gt;" style="rounded=0;whiteSpace=wrap;html=1;" vertex="1" parent="1">
          <mxGeometry x="341" y="420" width="146" height="60" as="geometry" />
        </mxCell>
        <mxCell id="pE7B3yx1g88c6PC-OE0C-14" style="edgeStyle=orthogonalEdgeStyle;rounded=0;orthogonalLoop=1;jettySize=auto;html=1;" edge="1" parent="1" source="pE7B3yx1g88c6PC-OE0C-12" target="pE7B3yx1g88c6PC-OE0C-2">
          <mxGeometry relative="1" as="geometry" />
        </mxCell>
        <mxCell id="pE7B3yx1g88c6PC-OE0C-12" value="Mostre a média&amp;nbsp;&lt;div&gt;(media)&lt;/div&gt;" style="shape=display;whiteSpace=wrap;html=1;" vertex="1" parent="1">
          <mxGeometry x="350" y="515" width="130" height="70" as="geometry" />
        </mxCell>
        <mxCell id="pE7B3yx1g88c6PC-OE0C-13" style="edgeStyle=orthogonalEdgeStyle;rounded=0;orthogonalLoop=1;jettySize=auto;html=1;entryX=0;entryY=0;entryDx=63.75;entryDy=0;entryPerimeter=0;" edge="1" parent="1" source="pE7B3yx1g88c6PC-OE0C-10" target="pE7B3yx1g88c6PC-OE0C-12">
          <mxGeometry relative="1" as="geometry" />
        </mxCell>
      </root>
    </mxGraphModel>
  </diagram>
</mxfile>
